<?xml version="1.0" encoding="utf-8"?>
<!-- Generator: Adobe Illustrator 21.1.0, SVG Export Plug-In . SVG Version: 6.00 Build 0)  -->
<svg version="1.1" id="Layer_1" xmlns="http://www.w3.org/2000/svg" xmlns:xlink="http://www.w3.org/1999/xlink" x="0px" y="0px"
	 viewBox="0 0 37.8 37.8" style="enable-background:new 0 0 37.8 37.8;" xml:space="preserve">
<g transform="translate(-657.586 -645.586)">
	<g transform="translate(659 647)">
		<g>
			<g>
				<path d="M17.1,36C17.1,36,17.1,36,17.1,36c-0.3,0-0.5-0.1-0.7-0.3l-17.1-18C-0.9,17.6-1,17.3-1,17.1s0.1-0.5,0.3-0.7l18-17.1
					C17.4-0.9,17.7-1,17.9-1c0.3,0,0.5,0.1,0.7,0.3l17.1,18c0.4,0.4,0.4,1,0,1.4l-18,17.1C17.6,35.9,17.3,36,17.1,36z M1.4,17.1
					l15.7,16.5l16.5-15.7L17.9,1.4L1.4,17.1z"/>
			</g>
		</g>
	</g>
	<g transform="translate(669.949 661.455)">
		<g>
			<g>
				<path d="M1,7.1c-0.6,0-1-0.4-1-1V0c0-0.6,0.4-1,1-1s1,0.4,1,1v6.1C2,6.7,1.6,7.1,1,7.1z"/>
			</g>
		</g>
		<g>
			<g>
				<path d="M12,7.1c-0.6,0-1-0.4-1-1V0c0-0.6,0.4-1,1-1s1,0.4,1,1v6.1C13,6.7,12.6,7.1,12,7.1z"/>
			</g>
		</g>
		<g>
			<g>
				<path d="M13.1,3.9H0c-0.6,0-1-0.4-1-1s0.4-1,1-1h13.1c0.6,0,1,0.4,1,1S13.7,3.9,13.1,3.9z"/>
			</g>
		</g>
	</g>
</g>
</svg>
