<?xml version="1.0" encoding="utf-8"?>
<!-- Generator: Adobe Illustrator 21.1.0, SVG Export Plug-In . SVG Version: 6.00 Build 0)  -->
<svg version="1.1" id="Layer_1" xmlns="http://www.w3.org/2000/svg" xmlns:xlink="http://www.w3.org/1999/xlink" x="0px" y="0px"
	 viewBox="0 0 37.8 37.8" style="enable-background:new 0 0 37.8 37.8;" xml:space="preserve">
<g transform="translate(-123.586 -171.586)">
	<g>
		<path d="M142.1,209C142.1,209,142.1,209,142.1,209c-0.3,0-0.5-0.1-0.7-0.3l-17.1-18c-0.4-0.4-0.4-1,0-1.4l18-17.1
			c0.4-0.4,1-0.4,1.4,0l17.1,18c0.4,0.4,0.4,1,0,1.4l-18,17.1C142.6,208.9,142.3,209,142.1,209z M126.4,190.1l15.7,16.5l16.5-15.7
			l-15.7-16.5L126.4,190.1z"/>
	</g>
	<g>
		<path d="M152.2,190.9c-1.1,0-2.3,0-3.6-0.1c-1.3-0.1-4.2-0.6-5.2-2.3c-0.3-0.5-0.5-1.3-0.1-2.3c0,0,0-0.1,0.1-0.1
			c0.2-0.4,0.5-0.7,0.7-1c0,0,0,0,0,0c-2.6,0-4.2,1.1-5.9,2.3c-0.6,0.4-1.2,0.8-1.8,1.2c-3.3,1.8-7,2.5-10.7,1.8
			c-0.5-0.1-0.9-0.6-0.8-1.2c0.1-0.5,0.6-0.9,1.2-0.8c3.2,0.6,6.4,0,9.3-1.6c0.5-0.3,1.1-0.7,1.6-1.1c2.2-1.5,4.9-3.5,9.9-2.3
			c0.4,0.1,0.7,0.5,0.8,0.9c0,0.4-0.2,0.9-0.7,1c-0.8,0.3-1.4,0.8-1.9,1.7c-0.1,0.3,0,0.4,0,0.5c0.3,0.6,1.9,1.1,3.6,1.3
			c3.8,0.1,6.8,0.1,9.5-0.2c0.6-0.1,1,0.4,1.1,0.9c0.1,0.5-0.4,1-0.9,1.1C156.6,190.8,154.6,190.9,152.2,190.9z"/>
	</g>
</g>
</svg>
