<?xml version="1.0" encoding="utf-8"?>
<!-- Generator: Adobe Illustrator 21.1.0, SVG Export Plug-In . SVG Version: 6.00 Build 0)  -->
<svg version="1.1" id="Layer_1" xmlns="http://www.w3.org/2000/svg" xmlns:xlink="http://www.w3.org/1999/xlink" x="0px" y="0px"
	 viewBox="0 0 15.9 16.9" style="enable-background:new 0 0 15.9 16.9;" xml:space="preserve">
<style type="text/css">
	.st0{fill:none;}
</style>
<g>
	<path class="st0" d="M7,0c3.9,0,7,3.1,7,7s-3.1,7-7,7s-7-3.1-7-7S3.1,0,7,0z"/>
</g>
<g>
	<path d="M7,13.5c-3.6,0-6.5-2.9-6.5-6.5S3.4,0.5,7,0.5s6.5,2.9,6.5,6.5S10.6,13.5,7,13.5z M7,1.5C4,1.5,1.5,4,1.5,7
		c0,3,2.5,5.5,5.5,5.5c3,0,5.5-2.5,5.5-5.5C12.5,4,10,1.5,7,1.5z"/>
</g>
<g>
	<path d="M14.5,16.5c-0.3,0-0.5-0.1-0.7-0.3l-3-3c-0.4-0.4-0.4-1,0-1.4s1-0.4,1.4,0l3,3c0.4,0.4,0.4,1,0,1.4
		C15,16.4,14.8,16.5,14.5,16.5z"/>
</g>
</svg>
