<?xml version="1.0" encoding="utf-8"?>
<!-- Generator: Adobe Illustrator 21.1.0, SVG Export Plug-In . SVG Version: 6.00 Build 0)  -->
<svg version="1.1" id="Layer_1" xmlns="http://www.w3.org/2000/svg" xmlns:xlink="http://www.w3.org/1999/xlink" x="0px" y="0px"
	 viewBox="0 0 37.8 37.8" style="enable-background:new 0 0 37.8 37.8;" xml:space="preserve">
<g transform="translate(-712.586 -645.586)">
	<g>
		<path d="M731.1,683c-0.3,0-0.5-0.1-0.7-0.3l-17.1-18c-0.4-0.4-0.4-1,0-1.4l18-17.1c0.2-0.2,0.4-0.3,0.7-0.3c0.3,0,0.5,0.1,0.7,0.3
			l17.1,18c0.2,0.2,0.3,0.4,0.3,0.7c0,0.3-0.1,0.5-0.3,0.7l-18,17.1C731.6,682.9,731.3,683,731.1,683z M715.4,664.1l15.7,16.5
			l16.5-15.7l-15.7-16.5L715.4,664.1z"/>
	</g>
	<g>
		<path d="M738.4,664.9c-0.3,0-0.5-0.1-0.7-0.3l-2.4-2.4H728l-2.4,2.3c-0.4,0.4-1,0.4-1.4,0c-0.4-0.4-0.4-1,0-1.4l2.7-2.6
			c0.2-0.2,0.4-0.3,0.7-0.3h8.1c0.3,0,0.5,0.1,0.7,0.3l2.7,2.7c0.4,0.4,0.4,1,0,1.4C738.9,664.8,738.7,664.9,738.4,664.9z"/>
	</g>
	<g>
		<path d="M731.7,669.3c-0.6,0-1-0.4-1-1v-6.8c0-0.6,0.4-1,1-1s1,0.4,1,1v6.8C732.7,668.9,732.3,669.3,731.7,669.3z"/>
	</g>
</g>
</svg>
