<?xml version="1.0" encoding="utf-8"?>
<!-- Generator: Adobe Illustrator 21.1.0, SVG Export Plug-In . SVG Version: 6.00 Build 0)  -->
<svg version="1.1" id="Layer_1" xmlns="http://www.w3.org/2000/svg" xmlns:xlink="http://www.w3.org/1999/xlink" x="0px" y="0px"
	 viewBox="0 0 37.8 37.8" style="enable-background:new 0 0 37.8 37.8;" xml:space="preserve">
<g transform="translate(-547.586 -645.586)">
	<g>
		<path d="M566.1,683.4l-18.5-19.3l19.3-18.5l18.5,19.3L566.1,683.4z M550.4,664.1l15.7,16.5l16.5-15.7l-15.7-16.5L550.4,664.1z"/>
	</g>
	<g>
		<path d="M580.3,669.5c-0.3,0-0.5-0.1-0.7-0.3l-8.3-8.5l-6,5.3c-0.4,0.3-1,0.3-1.3,0l-3.2-3l-7.1,5.9c-0.4,0.4-1.1,0.3-1.4-0.1
			c-0.4-0.4-0.3-1.1,0.1-1.4l7.8-6.5c0.4-0.3,1-0.3,1.3,0l3.1,3l6-5.3c0.4-0.4,1-0.3,1.4,0.1l9,9.2c0.4,0.4,0.4,1,0,1.4
			C580.8,669.4,580.6,669.5,580.3,669.5z"/>
	</g>
</g>
</svg>
